<svg viewBox="0 0 12 10" xmlns="http://www.w3.org/2000/svg">
<path d="M4.56321 1.0236L5.58127 2.06916C5.65094 2.14047 5.65075 2.25434 5.5809 2.32547L3.85573 4.08491L11.3167 4.08491C11.4179 4.08491 11.5 4.16705 11.5 4.26824L11.5 5.73491C11.5 5.8361 11.4179 5.91824 11.3167 5.91824L3.85573 5.91824L5.5809 7.67768C5.65058 7.74881 5.65075 7.86249 5.58127 7.93379L4.56321 8.97935C4.52875 9.01491 4.48144 9.03491 4.43194 9.03491C4.38244 9.03491 4.33513 9.01474 4.30067 8.97935L0.552056 5.12935C0.517402 5.0938 0.499999 5.04758 0.499999 5.00156C0.499999 4.95537 0.517423 4.90935 0.552056 4.8736L4.30067 1.0236C4.33513 0.98822 4.38244 0.968239 4.43194 0.968239C4.48144 0.968239 4.52875 0.98822 4.56321 1.0236Z"/>
</svg>
