<svg width="24px" height="24px" viewBox="0 0 24 24" fill="none" xmlns="http://www.w3.org/2000/svg">
<path d="M10 12C10 10.8954 10.8954 10 12 10C13.1046 10 14 10.8954 14 12C14 13.1046 13.1046 14 12 14C10.8954 14 10 13.1046 10 12Z" fill="#152C70"/>
<path fill-rule="evenodd" clip-rule="evenodd" d="M9.08281 4.1257C9.20349 2.91896 10.2189 2 11.4317 2H12.569C13.7819 2 14.7973 2.9191 14.9179 4.12577C14.9466 4.41213 15.2825 4.55104 15.5049 4.36904C16.4435 3.60111 17.8113 3.66933 18.6688 4.52684L19.4731 5.33114C20.3306 6.18869 20.3988 7.55654 19.6309 8.49516C19.4488 8.71774 19.5878 9.0537 19.8742 9.08234C21.0809 9.20301 22 10.2185 22 11.4313V12.5687C22 13.7814 21.0811 14.7968 19.8744 14.9175C19.5883 14.9461 19.4491 15.2818 19.6313 15.5045C20.3992 16.4431 20.3311 17.811 19.4735 18.6686L18.6693 19.4728C17.8117 20.3304 16.4439 20.3986 15.5052 19.6306C15.2827 19.4485 14.9466 19.5875 14.918 19.874C14.7973 21.0808 13.7818 22 12.5689 22H11.4319C10.219 22 9.20348 21.081 9.08279 19.8741C9.05417 19.5879 8.71814 19.4485 8.49522 19.6309C7.55652 20.3989 6.18845 20.3308 5.33075 19.4731L4.52683 18.6692C3.66918 17.8115 3.60104 16.4435 4.36904 15.5049C4.55134 15.2821 4.41205 14.9461 4.12581 14.9175C2.91901 14.7968 2 13.7813 2 12.5685V11.4315C2 10.2185 2.91917 9.203 4.12601 9.08232C4.41256 9.05366 4.55164 8.71751 4.36945 8.49484C3.60142 7.55614 3.66965 6.18819 4.52727 5.33057L5.33129 4.52654C6.18895 3.66889 7.55693 3.60082 8.49555 4.36878C8.71838 4.5511 9.05421 4.41172 9.08281 4.1257ZM12 8C9.79086 8 8 9.79086 8 12C8 14.2091 9.79086 16 12 16C14.2091 16 16 14.2091 16 12C16 9.79086 14.2091 8 12 8Z" fill="#152C70"/>
</svg>
