<svg viewBox="0 0 38 30" fill="none" xmlns="http://www.w3.org/2000/svg">
<path d="M33.3278 9.2815C32.5694 7.45007 31.4604 5.80706 30.0351 4.39392C28.5907 2.96194 26.9024 1.85404 25.0197 1.0966C23.2019 0.365532 21.2849 0 19.3146 0H19.2955C17.3328 0 15.4159 0.361764 13.6056 1.08529C12.4166 1.56011 11.2085 2.17435 10.1871 2.92426C10.1109 2.97324 10.0347 3.06745 10.0347 3.06745L10.088 3.45936C10.088 3.45936 11.4752 3.46313 11.4905 3.46313C13.8419 1.90303 16.5706 1.11921 19.2993 1.11921C22.897 1.11921 26.4908 2.47582 29.2271 5.18528C30.439 6.38739 31.3994 7.77038 32.0892 9.27396L32.1083 9.34179L33.3202 9.33426L33.3278 9.2815Z" fill="#696969"/>
<path d="M26.4679 26.9177C24.3222 28.1877 21.8603 28.8697 19.2993 28.8697H19.2802C15.534 28.832 12.0125 27.4114 9.36768 24.7886C8.20912 23.6392 7.27541 22.3203 6.59704 20.8921H5.35083C6.10923 22.6406 7.18395 24.2196 8.55974 25.5837C10.0041 27.0157 11.6924 28.1311 13.5751 28.8886C15.393 29.6196 17.3099 30.0002 19.2802 30.0002H19.2993C21.262 30.0002 23.1789 29.6234 24.9892 28.8999C26.2468 28.3949 27.4206 27.7317 28.4954 26.9177C28.2819 26.8989 26.6127 26.8989 26.4679 26.9177Z" fill="#696969"/>
<path d="M17.02 9.53774C17.1229 9.51137 17.222 9.4963 17.3173 9.48877C17.1839 9.48877 17.0467 9.48877 16.9133 9.48877C16.9286 9.52267 16.9362 9.54528 16.94 9.55281C16.9743 9.54528 16.9972 9.54151 17.02 9.53774Z" fill="#696969"/>
<path d="M28.4991 19.4749C28.6287 19.3167 28.6363 19.2074 28.5296 19.0303C28.2361 18.5366 27.9465 18.043 27.653 17.5493C27.4167 17.1499 27.1805 16.7504 26.9442 16.351C27.2224 16.091 27.5806 16.0721 27.8665 16.3095C27.9389 16.3698 27.996 16.4452 28.057 16.513C28.1675 16.6374 28.3467 16.66 28.4801 16.562C28.6096 16.4678 28.6516 16.2945 28.5601 16.1626C28.2933 15.7744 27.9274 15.537 27.4396 15.5333C26.967 15.5295 26.5935 15.7405 26.3115 16.1023C26.2124 16.2304 26.2048 16.3585 26.2887 16.4942C26.5288 16.8861 26.7689 17.278 27.0051 17.6737C27.2224 18.0392 27.4396 18.4085 27.6569 18.774C27.7407 18.9172 27.8245 19.0566 27.9084 19.2036C27.7293 19.3732 27.5273 19.4485 27.2872 19.392C27.0776 19.3468 26.9175 19.2224 26.7879 19.0529C26.6812 18.9134 26.4906 18.8871 26.3534 18.9813C26.2201 19.0755 26.1781 19.2639 26.2734 19.3958C26.5592 19.799 26.948 20.0251 27.4549 20.0138C27.8931 20.0138 28.2323 19.8065 28.4991 19.4749ZM28.2857 16.3736C28.2933 16.3811 28.2971 16.3887 28.3047 16.4C28.3238 16.3849 28.3619 16.3774 28.3657 16.3585C28.3733 16.3246 28.3695 16.2832 28.3543 16.2568C28.3276 16.2116 28.2514 16.1739 28.3238 16.1249C28.3886 16.0797 28.4305 16.1475 28.4648 16.1927C28.5448 16.2982 28.5182 16.4339 28.4038 16.4942C28.3695 16.513 28.3124 16.5092 28.2704 16.5017C28.2476 16.4979 28.2247 16.4527 28.2285 16.4263C28.2209 16.4075 28.259 16.3887 28.2857 16.3736ZM28.0113 18.514C28.0342 18.5065 28.0761 18.5178 28.0913 18.5366C28.1294 18.5856 28.1561 18.6459 28.1866 18.7024C28.2666 18.8381 28.3505 18.9775 28.4305 19.1132C28.4534 19.1509 28.4686 19.1961 28.4762 19.2187C28.4762 19.3242 28.3352 19.5164 28.2552 19.539C28.2361 19.5428 28.198 19.5352 28.1866 19.5164C28.1752 19.5013 28.179 19.4674 28.1866 19.4485C28.198 19.4259 28.2285 19.4071 28.2476 19.3883C28.3467 19.2903 28.3581 19.2338 28.2857 19.1132C28.1942 18.9549 28.0989 18.7966 28.0075 18.6421C27.996 18.6233 27.9808 18.6044 27.9808 18.5894C27.9884 18.563 27.996 18.5215 28.0113 18.514ZM27.8931 18.416C27.8436 18.3444 27.7979 18.2691 27.7636 18.1937C27.7521 18.1711 27.7826 18.1334 27.7941 18.1108C27.8741 18.1146 28.0265 18.3746 27.9999 18.416C27.9656 18.4537 27.9236 18.4575 27.8931 18.416Z" fill="#696969"/>
<path d="M23.9792 16.0193C23.6857 15.6877 23.3237 15.4993 22.8664 15.5256C22.4357 15.552 22.0965 15.7593 21.8488 16.0984C21.7992 16.1625 21.7688 16.2567 21.7688 16.3358C21.7573 16.6599 21.7573 16.9802 21.7649 17.3043C21.7649 17.3834 21.7992 17.4701 21.8412 17.5342C21.9098 17.6359 22.0012 17.7226 22.0813 17.8168C22.0012 17.9072 21.9136 17.9939 21.8412 18.0881C21.7992 18.1409 21.765 18.2125 21.7611 18.2765C21.7535 18.7363 21.7497 19.1998 21.7573 19.6595C21.7611 19.8668 21.9669 19.9987 22.1651 19.9384C22.2985 19.8969 22.3785 19.7839 22.3785 19.6218C22.3785 19.2375 22.3785 18.8531 22.3823 18.4725C22.3823 18.4273 22.409 18.3708 22.4395 18.3368C22.5881 18.1899 22.7635 18.1107 22.9807 18.1183C23.0722 18.122 23.1636 18.122 23.2551 18.1183C23.4304 18.107 23.5523 17.9751 23.5523 17.8093C23.5485 17.6435 23.4151 17.5116 23.2398 17.5078C23.1446 17.504 23.0493 17.504 22.954 17.5078C22.733 17.5116 22.5615 17.4174 22.4166 17.2629C22.3976 17.2402 22.3823 17.2026 22.3823 17.1686C22.3785 16.935 22.3823 16.7014 22.3823 16.4677C22.3823 16.4376 22.39 16.4037 22.409 16.3811C22.5615 16.1851 22.8549 16.0871 23.1026 16.1512C23.297 16.2002 23.438 16.3208 23.5485 16.4753C23.6286 16.5845 23.7391 16.6298 23.8725 16.6072C24.0821 16.5732 24.204 16.3509 24.1011 16.1738C24.0783 16.121 24.0249 16.0721 23.9792 16.0193ZM22.2528 19.6859C22.2337 19.7349 22.2032 19.7839 22.1613 19.8178C22.1384 19.8366 22.0851 19.8216 22.047 19.8253C22.0584 19.7914 22.0698 19.7613 22.0851 19.7274C22.1041 19.6821 22.1308 19.6369 22.1422 19.5879C22.1537 19.5389 22.1384 19.4824 22.1461 19.4334C22.1499 19.4071 22.1804 19.3844 22.1994 19.3581C22.2223 19.3807 22.2528 19.4033 22.2642 19.4297C22.2756 19.456 22.268 19.49 22.268 19.5239C22.2718 19.5239 22.2718 19.5239 22.2756 19.5239C22.268 19.5804 22.2718 19.6369 22.2528 19.6859ZM22.207 19.2827C22.1499 19.2902 22.1422 19.2375 22.1461 19.1923C22.1461 19.147 22.1461 19.0943 22.207 19.1018C22.2375 19.1056 22.2604 19.1508 22.3061 19.1923C22.2604 19.2337 22.2375 19.2789 22.207 19.2827ZM23.2208 17.9185C23.2551 17.9148 23.2856 17.8959 23.3199 17.8884C23.3465 17.8846 23.377 17.8922 23.4075 17.8922C23.4037 17.9223 23.4075 17.9675 23.3885 17.9826C23.3427 18.0128 23.2856 18.0316 23.2208 18.058C23.1865 18.0316 23.1369 18.009 23.1331 17.9826C23.1179 17.9223 23.1712 17.9223 23.2208 17.9185ZM23.9182 16.4866C23.8839 16.5054 23.8382 16.513 23.8001 16.5054C23.7734 16.4979 23.7429 16.4602 23.7353 16.43C23.7315 16.415 23.781 16.3886 23.8039 16.3698C23.8115 16.3773 23.8191 16.3886 23.8267 16.3961C23.8458 16.3811 23.8801 16.366 23.8839 16.3471C23.8877 16.317 23.8839 16.2793 23.8687 16.2529C23.8382 16.2115 23.7658 16.17 23.8382 16.121C23.903 16.0758 23.9449 16.1474 23.9792 16.1889C24.0592 16.2906 24.0325 16.4225 23.9182 16.4866Z" fill="#696969"/>
<path d="M25.8158 16.1887C25.9834 16.1736 26.1054 16.0342 26.0978 15.8759C26.094 15.7177 25.9606 15.582 25.7967 15.582C25.3699 15.5782 24.943 15.5745 24.5162 15.5782C24.318 15.582 24.1808 15.7591 24.2189 15.9475C24.2494 16.0907 24.3752 16.1849 24.5429 16.1887C24.6381 16.1925 24.7372 16.1887 24.8325 16.1887C24.8287 17.2514 24.8287 18.2953 24.8249 19.3466C24.7258 19.3466 24.6343 19.3466 24.5429 19.3466C24.3485 19.3466 24.2075 19.4748 24.2037 19.6519C24.1999 19.8328 24.3409 19.9647 24.5429 19.9647C24.9468 19.9647 25.347 19.9684 25.751 19.9684C25.9453 19.9684 26.0863 19.8403 26.0902 19.6632C26.094 19.4861 25.9453 19.3504 25.751 19.3504C25.6557 19.3504 25.5642 19.3504 25.4651 19.3504C25.469 18.2953 25.469 17.2514 25.4728 16.1887C25.5947 16.1887 25.7052 16.1962 25.8158 16.1887ZM25.751 15.9701C25.7815 15.9701 25.812 15.9438 25.8462 15.94C25.8729 15.9362 25.9148 15.9362 25.9225 15.9475C25.9339 15.9701 25.9339 16.0154 25.9187 16.0267C25.8729 16.0606 25.8158 16.0832 25.7472 16.1171C25.7091 16.087 25.6519 16.0643 25.6481 16.0342C25.6443 15.9777 25.7014 15.9739 25.751 15.9701ZM25.7738 19.7574C25.8081 19.7536 25.8424 19.731 25.8805 19.7235C25.9072 19.7197 25.953 19.7197 25.9568 19.731C25.9682 19.7536 25.9682 19.8026 25.953 19.8139C25.9034 19.8478 25.8424 19.8704 25.7738 19.9006C25.7357 19.8704 25.69 19.8516 25.6862 19.8252C25.6748 19.7649 25.7281 19.7649 25.7738 19.7574ZM25.267 17.6622C25.267 17.6169 25.267 17.5679 25.3318 17.5679C25.3965 17.5679 25.3927 17.6169 25.3927 17.6622C25.3927 17.8883 25.3927 18.1106 25.3927 18.3367C25.3927 18.559 25.3927 18.7814 25.3927 19.0037C25.3927 19.0489 25.3965 19.0979 25.3318 19.0979C25.267 19.0979 25.2708 19.0489 25.2708 19.0037C25.267 18.5553 25.267 18.1106 25.267 17.6622ZM25.3203 19.3579C25.2593 19.3617 25.2632 19.3052 25.2632 19.2637C25.2632 19.2185 25.2708 19.1658 25.3318 19.1771C25.3622 19.1846 25.3813 19.2298 25.4232 19.2788C25.3775 19.3165 25.3508 19.3579 25.3203 19.3579Z" fill="#696969"/>
<path d="M17.4508 9.48897C17.3708 9.48144 17.2869 9.48144 17.2069 9.48897C17.1078 9.49651 17.0087 9.51158 16.9096 9.53796C16.8868 9.54173 16.8639 9.54927 16.8296 9.55304C16.8258 9.5455 16.8182 9.52289 16.8029 9.48897C16.5476 8.85212 14.5163 3.82134 14.4706 3.70076L10.1222 3.67815C10.1488 3.88164 10.1793 4.04368 10.2098 4.22079C10.2365 4.37906 10.2517 4.44313 10.2937 4.60517C10.3165 4.6843 10.3394 4.71068 10.427 4.71068C11.0178 4.70691 11.4713 4.71068 12.0582 4.71068C12.0887 4.71068 12.1191 4.71068 12.1725 4.71068C11.5627 4.97823 10.9758 5.23448 10.3775 5.49827C10.3318 5.40029 10.2784 5.29855 10.2441 5.19303C10.1908 5.02722 10.1336 4.86518 10.0993 4.69561C10.0154 4.28485 9.98496 4.13035 9.9316 3.82511C9.89349 3.59147 9.863 3.34276 9.84014 3.10912C9.80203 3.08274 9.80203 3.07521 9.76392 3.04883C9.5848 3.08651 9.40568 3.11666 9.23037 3.15811C8.91786 3.23725 8.62822 3.36537 8.35764 3.53872C8.16327 3.6593 8.01845 3.82134 7.93842 4.0286C7.84696 4.25471 7.75549 4.48458 7.69451 4.72198C7.64497 4.91417 7.63735 5.12143 7.62973 5.32116C7.60305 5.95047 7.59162 6.58356 7.56494 7.21288C7.56494 7.25056 7.53445 7.29955 7.50015 7.32593C7.07712 7.69146 6.68077 8.08714 6.3111 8.50166C5.56795 9.33447 4.9315 10.2426 4.36747 11.1998C3.52903 12.6167 2.94975 14.1278 2.56484 15.7143C2.45813 16.1552 2.39334 16.6074 2.3095 17.0521C2.29425 17.1312 2.32474 17.1614 2.4124 17.1576C2.66393 17.1463 2.91545 17.1312 3.16698 17.1162C3.63955 17.0898 4.11212 17.0672 4.59613 17.0596C4.57326 17.0709 4.5504 17.0822 4.52753 17.0973C4.24932 17.2518 3.96349 17.3875 3.70053 17.5608C3.40708 17.753 3.13268 17.9716 2.84686 18.1826C2.82399 18.1977 2.80112 18.2165 2.78969 18.2354C2.76682 18.2806 2.76301 18.3258 2.83542 18.3371C3.11744 18.3786 3.40327 18.4238 3.68529 18.4577C4.36747 18.5406 5.05345 18.5745 5.74326 18.5481C6.2082 18.5293 6.67696 18.4916 7.14191 18.4389C8.12516 18.3258 9.0703 18.0733 9.99639 17.7417C10.7662 17.4628 11.4941 17.1049 12.2068 16.7092C12.3745 16.615 12.546 16.5245 12.7175 16.4265C12.767 16.4002 12.7975 16.4077 12.8432 16.4416C13.3044 16.8185 13.8189 17.0973 14.421 17.1953C14.8479 17.2631 15.2709 17.2443 15.6901 17.1614C16.0331 17.0935 16.3647 16.9843 16.6695 16.8222C16.7343 16.7883 16.7915 16.7469 16.8601 16.7016C16.6543 16.3512 16.3951 16.0497 16.1169 15.7671C15.8387 15.4845 15.5453 15.2169 15.2556 14.938C15.4271 14.8325 15.6024 14.727 15.7739 14.6177C15.8616 14.565 15.9454 14.5084 16.0369 14.4595C16.0636 14.4444 16.1055 14.4406 16.1284 14.4519C16.5514 14.6743 17.0735 14.3766 17.0659 13.9017C17.0659 13.8791 17.0697 13.8565 17.0697 13.8301C17.1688 13.8339 17.2641 13.8339 17.3555 13.8452C17.3784 13.849 17.4051 13.8867 17.4165 13.9168C17.6909 14.5876 17.9615 15.2583 18.2321 15.9291C18.3578 16.2381 18.4798 16.5434 18.6056 16.8524C18.9676 17.7304 19.3297 18.6122 19.6917 19.4902C19.7031 19.5204 19.7146 19.5543 19.7298 19.5882C13.4987 19.5769 7.27911 19.5656 1.05185 19.5505C1.05185 19.5128 1.05185 19.4827 1.05185 19.4525C1.05947 14.9192 1.07091 10.3858 1.08234 5.8525C1.08234 5.80728 1.10139 5.74698 1.13569 5.71683C1.48631 5.38145 1.84074 5.04983 2.19517 4.72198C2.22565 4.69561 2.27901 4.6843 2.32093 4.6843C4.04353 4.6843 5.66322 4.68807 7.38582 4.69184C7.52302 4.69184 7.52302 4.69184 7.5535 4.55994C7.62973 4.25094 7.74406 3.95324 7.94604 3.70076C7.94985 3.69322 7.95367 3.68568 7.95748 3.67061C7.91937 3.67061 7.88888 3.67061 7.85839 3.67061C5.81185 3.66684 3.8606 3.66307 1.81406 3.65554C1.73784 3.65554 1.6883 3.67815 1.63494 3.72713C1.13188 4.22833 0.613579 4.71822 0.0952763 5.2081C0.07241 5.22695 0.0495437 5.24579 0.0304884 5.26463C0.0190553 10.3972 0.0076221 15.5334 0 20.666C6.74937 20.6773 13.5026 20.6923 20.2519 20.7036C20.3929 21.0466 20.5301 21.3895 20.6711 21.7362C20.7969 22.0452 20.9189 22.3504 21.0446 22.6594C21.4067 23.5375 21.7687 24.4193 22.1308 25.2973C22.1384 25.3161 22.3366 25.8362 22.47 26.1866C22.5462 26.3826 22.7329 26.5107 22.9425 26.5107C23.1979 26.5107 23.5371 26.5107 23.7543 26.5107C23.6018 26.1263 23.4494 25.7382 23.2931 25.3538C22.5691 23.5525 21.8449 21.7475 21.117 19.9462C21.0294 19.7276 20.9341 19.5128 20.8388 19.298C20.8198 19.2528 19.1543 15.1076 19.1086 14.9795C19.1048 14.9644 19.1277 14.9305 19.1505 14.9154C19.3678 14.7421 19.6155 14.6215 19.8746 14.5235C20.3663 14.3351 20.8846 14.2334 21.4067 14.1693C21.723 14.1316 22.0431 14.1015 22.3594 14.0675C22.4319 14.06 22.5043 14.0374 22.5767 14.0186C22.5233 14.1391 22.1994 14.4218 21.8564 14.6177C21.582 14.7722 21.2962 14.9004 21.0523 15.0247C21.2923 14.9983 21.5591 14.9079 21.8221 14.8024C22.4357 14.5537 22.9997 14.2258 23.5256 13.8339C23.8076 13.6229 24.1201 13.4571 24.425 13.2837C25.1568 12.8692 25.9075 12.4848 26.7155 12.2361C27.1194 12.1118 27.5349 12.0176 27.9464 11.9083C27.9731 11.9007 27.996 11.9007 28.0379 11.897C28.0189 11.9196 28.0074 11.9346 27.996 11.946C27.1385 12.6732 27.0089 13.8942 27.573 14.8589C27.8474 15.3299 28.2323 15.6917 28.7239 15.9442C28.7849 15.9743 28.8077 16.0083 28.8077 16.0761C28.8039 17.2669 28.8001 18.4577 28.8001 19.6485C28.8001 19.8218 28.8878 19.95 29.0364 19.9839C29.246 20.0329 29.4289 19.8897 29.4289 19.6673C29.4328 19.3357 29.4328 19.0041 29.4328 18.6725C29.4328 18.5331 29.4328 18.3899 29.4328 18.2429C29.8062 18.2429 30.1759 18.2429 30.557 18.2467C30.557 18.2806 30.557 18.3145 30.557 18.3484C30.557 18.7931 30.5532 19.2377 30.5532 19.6824C30.5532 19.901 30.7247 20.0366 30.9305 19.9952C31.0639 19.9688 31.163 19.852 31.1744 19.7126C31.1782 19.6824 31.1744 19.656 31.1744 19.6259C31.1782 18.4615 31.1782 17.297 31.182 16.1288C31.182 16.0949 31.182 16.061 31.182 15.997C31.2621 16.0497 31.3307 16.0874 31.3878 16.1364C31.5365 16.2683 31.6127 16.4454 31.666 16.63C31.7499 16.9089 31.8299 17.1878 31.9138 17.4666C31.9823 17.6889 32.1081 17.8736 32.2987 18.013C32.3939 18.0809 32.4854 18.1525 32.5769 18.2278C32.6645 18.2994 32.7103 18.4012 32.7103 18.5105C32.7179 18.8421 32.7369 19.1737 32.7141 19.5015C32.6798 20.0216 32.634 20.5416 32.5578 21.0579C32.4054 22.0678 32.0662 23.0174 31.4336 23.8465C31.1058 24.2723 30.7628 24.6906 30.4122 25.0976C30.2064 25.335 29.932 25.497 29.6576 25.6515C29.4899 25.7457 29.3337 25.8588 29.1584 25.9341C28.8687 26.0547 28.5715 26.164 28.2704 26.2545C27.8702 26.3788 27.4586 26.4579 27.0394 26.4994C27.0318 26.4994 27.0242 26.5032 27.0165 26.522C27.0547 26.522 27.0928 26.522 27.1309 26.522C27.5501 26.522 27.9655 26.5258 28.3847 26.5258C28.4228 26.5258 28.4609 26.5333 28.499 26.5333C31.0829 26.5371 33.6668 26.5446 36.2545 26.5484C36.468 26.3374 36.6776 26.1226 36.891 25.9115C37.234 25.5761 37.5732 25.237 37.9162 24.9054C37.9581 24.8639 37.9771 24.8225 37.9771 24.7622C37.9809 21.5854 37.9848 18.4125 37.9924 15.2357C37.9962 13.3817 37.9962 11.5277 38 9.67362C38 9.63217 38 9.59449 38 9.54173C31.0448 9.51535 24.3755 9.50405 17.4508 9.48897ZM2.90402 16.2419C2.85829 16.2909 2.80112 16.3248 2.74777 16.3663C2.69822 16.4039 2.64868 16.4454 2.59914 16.4906C2.49624 16.3323 2.6563 16.11 2.82018 16.0912C2.85829 16.0874 2.91545 16.1062 2.9307 16.1326C2.94594 16.1552 2.9307 16.2155 2.90402 16.2419ZM14.5887 6.96793C14.6078 7.01692 14.6268 7.06214 14.6497 7.11867C14.5125 7.17519 14.3753 7.22795 14.2419 7.28824C13.8227 7.47666 13.4073 7.66885 12.9919 7.86104C12.0162 8.32078 11.1016 8.87096 10.2251 9.49274C10.1946 9.51535 10.1526 9.52289 10.1145 9.53043C10.6443 8.92749 13.7122 7.17519 14.5887 6.96793ZM6.39113 9.02546C6.63123 8.75414 6.86752 8.48282 7.11905 8.2228C7.35533 7.98163 7.60686 7.75175 7.85077 7.52188C7.90031 7.47666 7.92318 7.43521 7.92318 7.36738C7.92318 6.85865 7.91556 6.35369 7.9308 5.84496C7.94223 5.41536 7.97272 4.98577 8.07181 4.56748C8.09468 4.47704 8.1366 4.3866 8.1709 4.29993C8.18233 4.27355 8.2052 4.25094 8.22044 4.22833C8.25474 4.67676 8.27761 5.11766 8.32715 5.55479C8.37669 5.99569 8.44529 6.43282 8.59773 6.86619C8.70825 6.77952 8.81115 6.70415 8.91024 6.62501C8.92548 6.61371 8.92548 6.57979 8.92167 6.55718C8.87213 6.21426 8.80353 5.86757 8.77304 5.52465C8.7235 5.00084 8.75018 4.47704 8.91786 3.96831C8.92548 3.94193 8.94073 3.91178 8.95978 3.88917C8.92548 4.72198 9.05887 5.52088 9.42473 6.28209C9.4476 6.27078 9.46284 6.26702 9.47428 6.25948C9.56574 6.20295 9.66102 6.1502 9.7601 6.0899C9.52001 5.38522 9.49333 4.66923 9.63815 3.9457C9.64196 3.91932 9.65339 3.89671 9.67626 3.8741C9.71818 4.21702 9.74867 4.56371 9.80965 4.90287C9.87062 5.24579 9.98877 5.57364 10.1946 5.87134C10.2251 5.85626 10.2555 5.84496 10.2822 5.83365C11.1168 5.46812 11.9515 5.09882 12.7937 4.74459C12.9233 4.69184 13.0833 4.71445 13.232 4.69937C13.2358 4.71068 13.2358 4.72198 13.2396 4.73329C13.1634 4.75967 13.0872 4.78605 13.0147 4.81619C12.6298 4.982 12.2335 5.13651 11.86 5.32492C11.2731 5.61886 10.69 5.92786 10.1183 6.25194C9.06649 6.84735 8.11373 7.57087 7.25243 8.40745C6.90944 8.73907 6.59312 9.08953 6.26537 9.43245C6.20439 9.49651 6.12436 9.53043 5.97573 9.53796C6.11293 9.36085 6.24631 9.1875 6.39113 9.02546ZM4.69522 13.8377C5.08394 13.8377 5.39645 14.1391 5.39645 14.516C5.37358 14.6102 5.0687 15.0172 4.69903 15.1905C4.29887 15.1905 3.98636 14.8928 3.98636 14.5122C3.98255 14.1354 4.29506 13.8377 4.69522 13.8377ZM5.42313 17.086C5.25163 17.1953 5.06489 17.1991 4.86671 17.1614C4.92769 17.1576 4.98867 17.1538 5.04964 17.1463C5.07632 17.1425 5.103 17.1388 5.12968 17.135C5.32404 17.0935 5.44599 16.9843 5.46886 16.826C5.49554 16.6677 5.40026 16.5132 5.21352 16.419C4.99629 16.306 4.76 16.2683 4.51991 16.2532C4.31411 16.2381 4.1045 16.2419 3.89871 16.2381C3.88346 16.2381 3.86822 16.2344 3.84916 16.2344C4.276 16.159 4.70284 16.1288 5.11443 16.272C5.24401 16.3173 5.37358 16.3889 5.48029 16.4755C5.70133 16.6602 5.66703 16.9315 5.42313 17.086ZM6.26918 14.207C5.78899 14.1919 5.43075 13.9507 5.1716 13.5701C5.08013 13.4382 5.1373 13.2423 5.27069 13.1556C5.40788 13.0652 5.59462 13.0991 5.70133 13.2234C5.76993 13.3026 5.83853 13.3855 5.91856 13.4495C6.18915 13.6568 6.53595 13.6266 6.78748 13.3855C6.50166 12.8994 6.21583 12.4132 5.93 11.9309C5.68228 11.5126 5.43837 11.0981 5.19065 10.6798C5.10681 10.5403 5.11443 10.4085 5.21733 10.2803C5.52984 9.88842 5.93 9.66609 6.46736 9.71884C6.53595 9.72638 6.60455 9.74145 6.67315 9.7603C7.0009 9.85827 7.26768 10.0392 7.45823 10.3105C7.56494 10.465 7.54207 10.6421 7.39725 10.7476C7.26005 10.8494 7.05807 10.8267 6.93993 10.6949C6.87514 10.6233 6.81035 10.5403 6.73413 10.4801C6.45973 10.2615 6.09006 10.2841 5.84997 10.5328C5.86902 10.5667 5.88808 10.6006 5.90713 10.6346C6.34159 11.3694 6.77605 12.108 7.21432 12.8428C7.29054 12.9709 7.37439 13.0915 7.45442 13.2197C7.54969 13.3666 7.54207 13.5098 7.42774 13.6455C7.13048 14.0035 6.757 14.2258 6.26918 14.207ZM8.28523 16.3399C8.04894 16.5283 7.78217 16.6526 7.49634 16.7393C7.43536 16.7582 7.37057 16.7732 7.30579 16.7921C7.30198 16.7845 7.29816 16.777 7.29816 16.7695C7.33246 16.7544 7.37057 16.7356 7.40487 16.7205C7.69833 16.5886 7.96891 16.4303 8.20138 16.2117C8.66252 15.7746 8.75018 15.2697 8.45672 14.7082C8.42243 14.6441 8.38813 14.5838 8.35383 14.5235C8.36145 14.516 8.36145 14.516 8.36526 14.516C8.55581 14.4821 8.55962 14.4783 8.63584 14.6516C8.90262 15.2244 8.84926 15.8914 8.28523 16.3399ZM9.61147 14.0261C9.57336 13.962 9.55431 13.8791 9.55431 13.8075C9.5505 13.3779 9.55431 12.9483 9.55431 12.5187C9.55431 12.4848 9.55431 12.4509 9.55431 12.4057C9.19226 12.4057 8.83783 12.4057 8.46435 12.4019C8.46435 12.4321 8.46435 12.466 8.46435 12.4961C8.46435 12.9408 8.46435 13.3855 8.46054 13.8301C8.46054 13.962 8.39956 14.0638 8.27761 14.1241C8.16327 14.1806 8.05275 14.1693 7.94985 14.0977C7.85458 14.0299 7.81647 13.9357 7.81647 13.8188C7.82028 12.888 7.82028 11.9573 7.82409 11.0265C7.82409 10.7137 7.82409 10.3972 7.8279 10.0844C7.8279 9.89596 7.96129 9.76407 8.14422 9.76407C8.32715 9.76407 8.46816 9.89973 8.46816 10.0844C8.46816 10.6082 8.46816 11.1358 8.46435 11.6596C8.46435 11.6935 8.46435 11.7274 8.46435 11.7688C8.83402 11.7688 9.18845 11.7688 9.55431 11.7726C9.55431 11.7349 9.55431 11.701 9.55431 11.6671C9.55431 11.1508 9.55431 10.6346 9.55812 10.1183C9.55812 9.8319 9.77535 9.69623 10.0459 9.80928C10.1565 9.85827 10.2098 9.94872 10.2136 10.0618C10.2174 10.1334 10.2136 10.205 10.2136 10.2766C10.2098 11.4636 10.2098 12.6544 10.206 13.8414C10.206 13.9959 10.126 14.0977 9.96971 14.1467C9.83251 14.1881 9.68007 14.1467 9.61147 14.0261ZM9.66102 16.4642C9.68388 16.4416 9.70675 16.4152 9.72962 16.3926C10.0764 16.0459 10.347 15.6578 10.4385 15.1754C10.4804 14.9644 10.4918 14.7496 10.4499 14.5386C10.4347 14.4444 10.4385 14.3728 10.5261 14.3163C10.5414 14.305 10.549 14.2823 10.5642 14.2597C10.8806 14.9305 10.3813 16.1552 9.66102 16.4642ZM11.3455 11.2865C11.3455 11.3242 11.3684 11.3694 11.395 11.3995C11.5399 11.5465 11.719 11.6294 11.9324 11.6256C12.0201 11.6219 12.1115 11.6219 12.1992 11.6256C12.3821 11.6332 12.5155 11.7688 12.5117 11.946C12.5079 12.1193 12.3707 12.2474 12.1916 12.2474C12.1001 12.2474 12.0086 12.2474 11.9172 12.2474C11.6999 12.2474 11.5246 12.3379 11.376 12.4886C11.3569 12.5074 11.3455 12.5451 11.3455 12.5715C11.3417 12.8014 11.3417 13.0312 11.3455 13.2649C11.3455 13.2988 11.3684 13.344 11.3912 13.3704C11.6809 13.6719 12.1077 13.6681 12.4012 13.3629C12.4317 13.3289 12.466 13.295 12.4926 13.2573C12.6108 13.0915 12.8204 13.0802 12.9728 13.1782C13.1215 13.2762 13.1481 13.4872 13.0224 13.6379C12.607 14.1391 12.0201 14.3803 11.3798 14.1128C11.1207 14.0072 10.9187 13.8301 10.7662 13.604C10.7281 13.5475 10.7091 13.4684 10.7052 13.4005C10.7014 13.0878 10.7052 12.7712 10.7014 12.4585C10.7014 12.3567 10.7243 12.27 10.7929 12.1947C10.8691 12.108 10.9492 12.0213 11.0292 11.9346C10.9453 11.8404 10.8539 11.75 10.7777 11.6483C10.7395 11.5955 10.7129 11.5239 10.7091 11.4598C10.7014 11.1433 10.7052 10.8267 10.7091 10.5064C10.7091 10.4461 10.7357 10.3745 10.77 10.3218C11.2693 9.59072 12.2373 9.50782 12.8661 10.1371C12.9195 10.1899 12.9766 10.2426 13.0224 10.2992C13.1405 10.4499 13.1215 10.6496 12.9804 10.7551C12.8356 10.8644 12.6146 10.8305 12.5003 10.6835C12.3745 10.5215 12.2259 10.3972 12.0162 10.3519C11.799 10.3067 11.4941 10.416 11.3646 10.5893C11.3493 10.6119 11.3455 10.6421 11.3455 10.6685C11.3417 10.8795 11.3417 11.083 11.3455 11.2865ZM16.3418 16.6451C15.5034 17.1275 14.2 17.1011 13.1519 16.2155C13.2167 16.1778 13.2777 16.1401 13.3425 16.11C13.3577 16.1025 13.392 16.1175 13.4073 16.1326C13.7846 16.5019 14.2419 16.7205 14.7716 16.7921C15.0765 16.8335 15.3814 16.826 15.6825 16.7732C15.9035 16.7393 16.1246 16.6903 16.3418 16.6451ZM16.0598 16.3097C15.5262 16.6037 14.604 16.5961 13.8036 15.8575C13.8913 15.7595 13.9027 15.7595 14.0018 15.8424C14.4668 16.2494 15.0232 16.3964 15.6329 16.3587C15.7701 16.3549 15.9035 16.3286 16.0598 16.3097ZM15.7015 15.9442C15.4462 16.0912 14.6421 15.7935 14.3982 15.4694C14.4363 15.4392 14.4744 15.4129 14.5201 15.3752C14.8402 15.7068 15.2137 15.9291 15.7015 15.9442ZM13.9942 11.3053C13.9942 11.3355 14.0056 11.3656 14.0285 11.3882C14.1695 11.5352 14.341 11.6256 14.5544 11.6294C14.6497 11.6294 14.745 11.6294 14.8402 11.6294C15.0308 11.6332 15.1642 11.7688 15.1604 11.9497C15.1566 12.1268 15.0194 12.2512 14.8326 12.2512C14.7526 12.2512 14.6726 12.2512 14.5925 12.2512C14.3753 12.2474 14.1924 12.3266 14.0437 12.4735C14.017 12.4999 13.9942 12.5564 13.9942 12.5941C13.9904 12.8164 13.9904 13.0388 13.9942 13.2611C13.9942 13.2988 14.017 13.3478 14.0399 13.3742C14.3296 13.6794 14.764 13.6719 15.0537 13.3629C15.088 13.3252 15.1184 13.2837 15.1527 13.2423C15.2633 13.1104 15.45 13.0802 15.591 13.1744C15.7282 13.2649 15.7739 13.4684 15.6749 13.604C15.1489 14.3464 14.1962 14.4293 13.5788 13.8113C13.5369 13.7698 13.5026 13.7246 13.4644 13.6794C13.3615 13.5626 13.3272 13.4269 13.3577 13.2536C13.3997 13.0199 13.4035 12.7825 13.3577 12.5489C13.3311 12.3944 13.3615 12.2813 13.453 12.1796C13.5254 12.0967 13.6016 12.0176 13.6779 11.9346C13.594 11.8442 13.5026 11.7538 13.4263 11.652C13.3844 11.5955 13.3577 11.5201 13.3539 11.4561C13.3463 11.1433 13.3501 10.8267 13.3539 10.514C13.3539 10.4499 13.3806 10.3745 13.4187 10.3218C13.9789 9.51535 15.1032 9.51912 15.6672 10.3218C15.7701 10.4688 15.7396 10.6647 15.5986 10.7627C15.4576 10.8644 15.2556 10.8343 15.1489 10.6911C15.0232 10.5253 14.8745 10.3934 14.6611 10.3557C14.3982 10.3067 14.1885 10.4122 14.0094 10.5931C13.9942 10.6082 13.9904 10.6421 13.9866 10.6647C13.9942 10.8833 13.9904 11.0943 13.9942 11.3053ZM18.3502 12.6959C18.3502 12.7448 18.3388 12.8051 18.3121 12.8428C18.3045 12.8579 18.293 12.8692 18.2854 12.8805C18.0453 13.2084 17.729 13.4232 17.3212 13.4721C17.2755 13.4759 17.2298 13.4797 17.1802 13.4834C16.982 13.4872 16.7991 13.4382 16.6238 13.3101C16.6238 13.5023 16.6238 13.6719 16.6238 13.8452C16.62 14.0713 16.4333 14.2145 16.2198 14.1618C16.0826 14.1278 15.9874 14.0072 15.9874 13.8603C15.9874 13.6379 15.9874 13.4156 15.9874 13.1933C15.9912 12.1909 15.9912 11.1885 15.9912 10.1861C15.9912 10.1635 15.9912 10.1447 15.9912 10.1221C15.9912 9.97886 16.0407 9.86581 16.1741 9.80552C16.3113 9.74522 16.4333 9.77537 16.5285 9.86581C16.6886 9.82059 16.8372 9.76406 16.9935 9.74145C17.5423 9.65855 18.0377 9.94118 18.3121 10.3519C18.335 10.3858 18.3502 10.4348 18.354 10.4801C18.354 10.4914 18.3578 10.5027 18.3578 10.5177C18.3578 11.2413 18.354 11.9686 18.3502 12.6959ZM29.3184 19.7389C29.2994 19.7842 29.2574 19.8294 29.2193 19.8633C29.2003 19.8784 29.1584 19.8671 29.1241 19.8671C29.1317 19.8332 29.1355 19.803 29.1469 19.7691C29.1698 19.7088 29.2003 19.6523 29.2155 19.592C29.227 19.5468 29.2117 19.494 29.2231 19.445C29.227 19.4224 29.2613 19.3998 29.2879 19.396C29.3032 19.3923 29.3337 19.4299 29.3375 19.4488C29.3451 19.4865 29.3413 19.5279 29.3413 19.5694C29.3451 19.5694 29.3451 19.5694 29.3489 19.5694C29.3375 19.6297 29.3375 19.69 29.3184 19.7389ZM29.3375 17.5759C29.3337 17.6023 29.2994 17.6211 29.2803 17.6475C29.2613 17.6249 29.2231 17.6023 29.2231 17.5759C29.2155 17.4742 29.2155 17.3686 29.2231 17.2669C29.2231 17.2443 29.2651 17.2254 29.2879 17.2028C29.307 17.2254 29.3375 17.2443 29.3413 17.2669C29.3489 17.3159 29.3451 17.3686 29.3451 17.4214C29.3413 17.4704 29.3489 17.5231 29.3375 17.5759ZM29.2193 18.3823C29.2193 18.3559 29.2536 18.3107 29.2765 18.307C29.3299 18.2994 29.3375 18.3446 29.3375 18.3899C29.3375 18.5293 29.3375 18.6725 29.3375 18.8119C29.3375 18.9514 29.3375 19.087 29.3375 19.2264C29.3375 19.2717 29.3299 19.3169 29.2765 19.3056C29.2536 19.3018 29.2193 19.2566 29.2193 19.2264C29.2155 18.9476 29.2155 18.665 29.2193 18.3823ZM29.2841 17.1199C29.2231 17.1312 29.2193 17.0785 29.2193 17.0333C29.2193 16.9918 29.2155 16.9353 29.2765 16.9428C29.307 16.9466 29.3299 16.988 29.3718 17.0257C29.3375 17.0672 29.3146 17.1124 29.2841 17.1199ZM30.5646 17.606C30.5608 17.606 30.5608 17.606 30.557 17.606C30.557 17.606 30.557 17.6136 30.557 17.6211C30.1797 17.6211 29.8139 17.6173 29.4442 17.6173C29.4442 17.1463 29.448 16.6753 29.448 16.1967C29.4518 16.1967 29.4518 16.1967 29.4556 16.1967C29.4556 16.1891 29.4556 16.1816 29.4556 16.1741C29.8253 16.2381 30.195 16.2532 30.5684 16.1778C30.5684 16.6564 30.5646 17.1162 30.5646 17.606ZM31.0753 19.7389C31.0486 19.7917 30.9953 19.8369 30.9457 19.8784C30.9343 19.8859 30.8886 19.8746 30.881 19.8595C30.8695 19.8407 30.8733 19.7917 30.8848 19.7842C30.98 19.7239 30.9686 19.6297 30.9762 19.5392C30.98 19.4865 30.9381 19.396 31.0372 19.3998C31.1325 19.3998 31.0868 19.4902 31.0982 19.543C31.0982 19.5505 31.0982 19.5618 31.0982 19.5694C31.102 19.5694 31.102 19.5694 31.1058 19.5694C31.0944 19.6297 31.102 19.69 31.0753 19.7389ZM31.0372 19.3056C30.9381 19.3056 30.9762 19.2227 30.9762 19.1699C30.9762 19.1209 30.9419 19.038 31.0372 19.038C31.1287 19.038 31.0829 19.1247 31.121 19.185C31.0906 19.2264 31.0639 19.3056 31.0372 19.3056ZM31.1858 15.8424C31.1706 15.8123 31.163 15.7935 31.1515 15.7746C31.0829 15.654 30.9419 15.59 30.8124 15.6201C30.6713 15.654 30.5761 15.7595 30.5646 15.9027C30.557 16.0196 30.557 16.0158 30.4351 16.0271C30.1226 16.0572 29.8139 16.0196 29.5128 15.9404C29.4632 15.9291 29.4404 15.9065 29.4289 15.8575C29.3794 15.6427 29.1584 15.5523 28.9564 15.654C28.9259 15.6691 28.8725 15.6691 28.8497 15.654C28.1751 15.2357 27.7178 14.6629 27.573 13.8867C27.4853 13.4118 27.5882 12.9559 27.7902 12.5225C28.1484 11.7425 28.7658 11.2978 29.6347 11.181C29.8977 11.1471 30.1645 11.1282 30.4198 11.196C30.7171 11.2752 30.9419 11.441 31.0143 11.75C31.1134 12.1758 30.8352 12.579 30.3969 12.6544C30.3093 12.6695 30.2255 12.6921 30.1569 12.7072C30.0921 12.6205 30.0349 12.5414 29.9777 12.4622C29.9663 12.4698 29.9587 12.4735 29.9472 12.4811C29.9663 12.5715 29.9663 12.6695 30.0692 12.7335C30.0235 12.7562 29.9777 12.7788 29.9282 12.8014C29.8634 12.6921 29.7796 12.6016 29.6347 12.5376C29.6843 12.677 29.7529 12.775 29.8596 12.8541C29.8329 12.8843 29.8062 12.9144 29.7834 12.9408C29.6767 12.8843 29.5738 12.8315 29.4709 12.775C29.509 12.9031 29.6271 13.0124 29.7186 13.035C29.6995 13.0652 29.6805 13.0915 29.6652 13.1179C29.5433 13.084 29.4175 13.0539 29.2956 13.0199C29.2917 13.0312 29.2841 13.0425 29.2803 13.0539C29.3946 13.1179 29.5052 13.1857 29.6271 13.2573C29.6233 13.2762 29.6157 13.3101 29.6081 13.3289C29.4709 13.3139 29.3413 13.2988 29.2155 13.2837C29.2117 13.295 29.2117 13.3063 29.2079 13.3176C29.3184 13.393 29.4328 13.4533 29.5814 13.4608C29.5814 13.4872 29.5814 13.5287 29.5814 13.5626C29.4709 13.5777 29.3642 13.5927 29.2574 13.604C29.2574 13.6153 29.2574 13.6304 29.2536 13.6417C29.3642 13.6606 29.4747 13.6794 29.6043 13.702C29.6081 13.7133 29.6157 13.751 29.6271 13.7887C29.5128 13.8339 29.4061 13.8754 29.2994 13.9168C29.3032 13.9281 29.3032 13.9394 29.307 13.9545C29.4251 13.9432 29.5433 13.9357 29.6767 13.9243C29.6957 13.9507 29.7262 13.9884 29.7529 14.0261C29.6424 14.0751 29.5433 14.1203 29.4404 14.1618C29.4442 14.1768 29.448 14.1881 29.4518 14.2032C29.5738 14.1844 29.6957 14.1693 29.8139 14.1504C29.8139 14.1429 29.8139 14.1316 29.8139 14.1241C29.8329 14.1504 29.8558 14.1768 29.871 14.1994C29.7719 14.2748 29.6767 14.3464 29.5852 14.418C29.5928 14.4255 29.5966 14.4368 29.6043 14.4444C29.7338 14.4255 29.8634 14.4105 29.9625 14.3012C30.0044 14.3351 30.0463 14.3728 30.0844 14.4029C30.0158 14.4971 29.9511 14.5838 29.8786 14.6856C30.0044 14.6893 30.1721 14.5876 30.214 14.5009C30.275 14.5273 30.336 14.5537 30.4008 14.58C30.3855 14.6215 30.3703 14.6629 30.3588 14.7044C30.3474 14.7459 30.3398 14.7835 30.3322 14.825C30.3398 14.8288 30.3512 14.8363 30.3588 14.8401C30.4198 14.7685 30.4808 14.6969 30.5494 14.6177C30.6066 14.629 30.679 14.6403 30.7666 14.6554C30.7666 14.7308 30.7666 14.8137 30.7666 14.8928C30.7781 14.8966 30.7895 14.9004 30.8009 14.9041C30.8428 14.8212 30.881 14.7421 30.9267 14.6516C30.9762 14.6441 31.0448 14.6328 31.1134 14.6215C31.1439 14.6818 31.1706 14.7383 31.2011 14.7948C31.2125 14.7948 31.2201 14.7948 31.2316 14.7948C31.2392 14.7534 31.2506 14.7119 31.2506 14.6705C31.2468 14.6064 31.2697 14.5687 31.3383 14.5537C31.3764 14.5461 31.4145 14.5235 31.4679 14.4971C31.4983 14.5386 31.5288 14.5838 31.5593 14.629C31.5669 14.6253 31.5746 14.6177 31.5822 14.614C31.5822 14.5989 31.5898 14.58 31.586 14.565C31.5174 14.4331 31.6127 14.3841 31.7003 14.3276C31.7308 14.3464 31.7651 14.3615 31.807 14.3841C31.8109 14.3577 31.8223 14.3389 31.8147 14.3276C31.7689 14.2484 31.8147 14.1994 31.8604 14.1391C32.0166 13.9507 32.0852 13.7397 31.9747 13.5061C31.8833 13.3063 31.647 13.2687 31.4983 13.4156C31.4297 13.4834 31.4145 13.5626 31.445 13.6568C31.2811 13.6153 31.1896 13.3704 31.2735 13.2197C31.4031 12.9973 31.7232 12.9069 31.9671 13.0275C32.3406 13.2121 32.535 13.5211 32.5464 13.9168C32.5616 14.7157 32.1881 15.3073 31.4793 15.6992C31.384 15.7445 31.2849 15.7897 31.1858 15.8424ZM32.6493 16.7469C32.4587 17.0521 32.4549 17.3762 32.5159 17.7116C32.5273 17.7832 32.554 17.8548 32.5769 17.9264C32.5693 17.9339 32.5654 17.9377 32.5578 17.9452C32.5007 17.9075 32.4397 17.8736 32.3901 17.8284C32.2186 17.6701 32.1424 17.4628 32.0738 17.248C32.0166 17.0596 31.9671 16.8712 31.9023 16.6866C31.7994 16.3813 31.6584 16.1062 31.3421 15.9329C31.7194 15.7256 32.0738 15.5033 32.3215 15.1641C32.5616 14.8288 32.7331 14.4595 32.7407 14.0261C32.9504 14.0864 33.1485 14.1429 33.3467 14.1994C33.3505 14.1957 33.3581 14.1881 33.3619 14.1844C33.2857 14.0902 33.2248 13.9846 33.1371 13.9055C32.9999 13.7811 32.8475 13.6794 32.7064 13.5626C32.6836 13.5437 32.6569 13.5211 32.6455 13.4948C32.5502 13.2649 32.3939 13.084 32.1843 12.9408C31.8909 12.7411 31.384 12.8202 31.1744 13.0991C31.041 13.2762 31.0639 13.5777 31.2278 13.7284C31.3573 13.849 31.5098 13.8414 31.6698 13.8038C31.6546 13.7585 31.6355 13.7209 31.6317 13.6794C31.6241 13.6116 31.6508 13.5475 31.7232 13.5287C31.7994 13.5098 31.8223 13.5777 31.8375 13.6342C31.8718 13.7472 31.8413 13.8527 31.7766 13.947C31.5746 14.222 31.2964 14.3803 30.9457 14.3992C30.7819 14.4067 30.6104 14.3992 30.4541 14.3577C30.073 14.2484 29.9168 13.9545 29.8443 13.6003C29.8177 13.4608 29.8291 13.3252 29.8939 13.1971C29.9549 13.0689 30.0578 12.9785 30.1988 12.937C30.3017 12.9031 30.4084 12.873 30.5151 12.8504C31.0448 12.7222 31.3764 12.1419 31.2011 11.6369C31.1744 11.5578 31.1249 11.4824 31.0982 11.3882C31.163 11.4297 31.2278 11.4749 31.2925 11.5164C31.3573 11.5578 31.4259 11.5955 31.4869 11.6407C31.586 11.7123 31.6927 11.7764 31.7842 11.8555C31.9137 11.9723 32.0281 12.108 32.1538 12.2323C32.2949 12.3718 32.4549 12.4735 32.6569 12.5263C33.1905 12.6657 33.6402 12.9596 34.0518 13.3101C34.5281 13.7171 34.9207 14.1881 35.2827 14.6931C35.3399 14.7685 35.4047 14.8401 35.4618 14.9154C35.5381 15.0209 35.5609 15.134 35.5228 15.2659C35.1798 15.3036 34.9245 15.1491 34.7034 14.9192C34.631 15.085 34.7149 15.3073 34.8864 15.394C35.0236 15.4656 35.176 15.4769 35.3285 15.4656C35.3589 15.4618 35.3856 15.4581 35.4161 15.4543C35.5571 15.4392 35.58 15.4505 35.599 15.59C35.6295 15.8048 35.5952 15.9932 35.3971 16.1401C35.2294 16.2645 35.0845 16.419 34.9245 16.5547C34.894 16.581 34.8483 16.5999 34.8102 16.6112C34.5662 16.6715 34.3223 16.6526 34.0784 16.6187C33.7697 16.5773 33.461 16.5321 33.1485 16.5584C33.0761 16.566 32.9999 16.5735 32.9275 16.5773C32.7903 16.581 32.7141 16.6489 32.6493 16.7469ZM36.9138 10.6383C36.91 12.7976 36.9062 14.9606 36.9024 17.1199C36.8986 19.4525 36.8986 21.7852 36.8948 24.1216C36.8948 24.1592 36.8719 24.2082 36.8452 24.2346C36.4413 24.619 36.0335 24.9996 35.6257 25.3802C35.599 25.4066 35.5495 25.4254 35.5076 25.4254C33.8231 25.4254 32.1386 25.4216 30.4579 25.4179C30.4351 25.4179 30.4122 25.4141 30.3779 25.4103C30.4008 25.3877 30.4122 25.3689 30.4274 25.3538C31.3993 24.423 32.1005 23.334 32.5197 22.0678C32.7026 21.5101 32.7903 20.9448 32.8246 20.3683C32.8436 20.0668 32.8932 19.7653 32.9199 19.4639C32.9542 19.0154 32.977 18.5632 32.8741 18.1185C32.8398 17.9603 32.7712 17.8095 32.7484 17.655C32.7141 17.4289 32.7293 17.1991 32.8093 16.9767C32.8589 16.8298 32.9923 16.728 33.1485 16.7205C33.3467 16.7129 33.5449 16.7167 33.7392 16.7318C33.9984 16.7506 34.2575 16.7808 34.5167 16.8071C34.6996 16.8222 34.8787 16.8034 35.0312 16.6903C35.0388 16.6866 35.0464 16.6828 35.0541 16.6753C35.1646 16.517 35.3361 16.4303 35.4885 16.3135C35.7743 16.0949 35.8544 15.8048 35.7591 15.4618C35.74 15.394 35.7324 15.3262 35.7362 15.2583C35.74 15.0812 35.7096 14.9079 35.6028 14.7647C35.0007 13.9658 34.3261 13.2347 33.4839 12.6695C33.2819 12.5338 33.0609 12.4321 32.8132 12.3906C32.5997 12.3529 32.4206 12.2512 32.2644 12.1042C32.1043 11.9535 31.9519 11.799 31.7956 11.6445C31.7156 11.5653 31.6279 11.5051 31.5136 11.49C31.4907 11.4862 31.4717 11.4749 31.4564 11.4598C31.1935 11.1734 30.8505 11.0302 30.4694 10.985C29.8748 10.9096 29.2956 10.9812 28.7658 11.2714C28.5715 11.3807 28.3962 11.5277 28.217 11.6671C28.1522 11.7198 28.0951 11.75 28.0112 11.7613C27.6339 11.799 27.2681 11.9007 26.9098 12.0176C25.919 12.3303 24.9891 12.7788 24.0858 13.2762C23.6133 13.5362 23.1598 13.8226 22.7329 14.1467C22.7253 14.1504 22.7177 14.1542 22.7062 14.158C22.752 14.0525 22.7939 13.9545 22.832 13.8641C22.3023 13.913 21.7802 13.9545 21.2619 14.0073C20.6597 14.0675 20.069 14.1919 19.5316 14.4783C19.3754 14.5612 19.2306 14.6629 19.0705 14.7609C18.8761 14.2936 18.6818 13.8226 18.4836 13.3516C18.556 13.2837 18.6246 13.2121 18.6894 13.1368C18.7771 13.035 18.8266 12.9031 18.8266 12.7675C18.8266 12.0402 18.8304 11.3129 18.8304 10.5818C18.8304 10.5479 18.8266 10.514 18.8228 10.4801C19.2725 10.4725 19.7222 10.4687 20.1719 10.4687C22.207 10.465 24.2459 10.4688 26.281 10.4763C28.2018 10.4838 30.1226 10.4951 32.0433 10.5064C33.6363 10.5177 35.2256 10.529 36.8186 10.5403C36.8491 10.5403 36.8834 10.5403 36.9253 10.5403C36.9139 10.5705 36.9138 10.6044 36.9138 10.6383Z" fill="#696969"/>
<path d="M17.7366 12.5261C17.7328 12.2284 17.7366 11.9307 17.7366 11.6368C17.7366 11.5237 17.7366 11.4069 17.7366 11.2938C17.7366 11.1054 17.7366 10.917 17.7366 10.7286C17.7366 10.6834 17.7137 10.6268 17.6794 10.5929C17.6413 10.5552 17.5994 10.5213 17.5575 10.4912C17.2831 10.3103 16.9363 10.348 16.6924 10.6042C16.6657 10.6306 16.6504 10.6758 16.6466 10.7097C16.6466 10.9811 16.6428 11.2486 16.6428 11.5199C16.6428 11.8629 16.6428 12.2096 16.6428 12.5525C16.6428 12.5864 16.6581 12.6278 16.6809 12.6505C16.8296 12.8087 17.0125 12.8841 17.1954 12.8841C17.3593 12.8803 17.527 12.8125 17.6718 12.6768C17.7175 12.6354 17.7366 12.5902 17.7366 12.5261Z" fill="#696969"/>
<path d="M16.479 11.1167C16.4713 11.1167 16.4637 11.1129 16.4561 11.1167C16.437 11.1167 16.4064 11.1732 16.4064 11.2071C16.4026 11.4596 16.4026 11.7083 16.4064 11.9608C16.4064 11.9909 16.4408 12.0211 16.4599 12.0512C16.4752 12.0211 16.5057 11.9947 16.5095 11.9646C16.5133 11.8364 16.5133 11.7121 16.5133 11.584C16.5133 11.4596 16.5133 11.3352 16.5133 11.2109C16.5133 11.2071 16.5133 11.1996 16.5133 11.1958C16.5095 11.1619 16.5133 11.128 16.479 11.1167Z" fill="#696969"/>
<path d="M18.1866 12.4958C18.198 12.4845 18.2095 12.4694 18.221 12.4581C18.2324 12.4468 18.24 12.4355 18.24 12.4242C18.2477 12.33 18.2439 12.2358 18.2439 12.1416C18.2439 12.0511 18.2477 11.9569 18.2439 11.8665C18.2439 11.8401 18.2133 11.8137 18.1942 11.7874C18.1751 11.81 18.1408 11.8363 18.1408 11.859C18.137 11.9908 18.137 12.119 18.137 12.2509C18.137 12.3112 18.137 12.3677 18.137 12.428C18.137 12.4506 18.1713 12.4732 18.1866 12.4958Z" fill="#696969"/>
<path d="M16.5097 13.7432C16.4982 13.6942 16.5364 13.6113 16.4562 13.6113C16.3646 13.6113 16.4066 13.6942 16.4028 13.747C16.3951 13.8299 16.4028 13.9128 16.334 13.9768C16.3149 13.9957 16.3111 14.0296 16.3035 14.056C16.334 14.056 16.3798 14.071 16.3951 14.056C16.4371 14.0145 16.4753 13.9655 16.4944 13.9128C16.5135 13.8713 16.5059 13.8186 16.5135 13.7696H16.5097C16.5097 13.7621 16.5097 13.7507 16.5097 13.7432Z" fill="#696969"/>
<path d="M16.4028 13.4267C16.4028 13.4568 16.4372 13.4869 16.4563 13.5133C16.4792 13.4907 16.5021 13.4681 16.5365 13.4304C16.5021 13.3927 16.4792 13.3664 16.4563 13.3438C16.4334 13.3701 16.4028 13.4003 16.4028 13.4267Z" fill="#696969"/>
<path d="M16.5403 10.936C16.5059 10.8984 16.483 10.8757 16.4601 10.8494C16.441 10.8757 16.4066 10.9059 16.4104 10.9323C16.4104 10.9624 16.4448 10.9926 16.4639 11.0227C16.483 10.9963 16.5021 10.9737 16.5403 10.936Z" fill="#696969"/>
<path d="M18.1367 12.6765C18.1291 12.7142 18.1329 12.7669 18.1902 12.7594C18.2131 12.7556 18.2322 12.7142 18.2704 12.6727C18.236 12.6388 18.2093 12.6162 18.1864 12.5898C18.1673 12.62 18.1444 12.6464 18.1367 12.6765Z" fill="#696969"/>
<path d="M10.0689 13.4985C10.1453 13.4985 10.1338 13.4457 10.1338 13.4005C10.1338 13.246 10.1338 13.0915 10.1338 12.9333C10.1338 12.7712 10.1338 12.6092 10.1338 12.4509C10.1338 12.4094 10.1414 12.3605 10.0727 12.3567C10.004 12.3567 10.0078 12.4019 10.0078 12.4471C10.0078 12.7674 10.004 13.0878 10.0078 13.4043C10.0116 13.4457 10.0002 13.4985 10.0689 13.4985Z" fill="#696969"/>
<path d="M8.32729 12.4434C8.30819 12.4735 8.27383 12.5037 8.27383 12.5338C8.26619 12.677 8.27001 12.8202 8.27001 12.9672C8.27001 13.1141 8.26619 13.2573 8.27001 13.4005C8.27001 13.4307 8.30437 13.4608 8.32347 13.4947C8.34256 13.4646 8.37693 13.4344 8.37693 13.4043C8.38075 13.1141 8.38075 12.8277 8.37693 12.5376C8.37693 12.5037 8.34638 12.4735 8.32729 12.4434Z" fill="#696969"/>
<path d="M10.134 13.762C10.134 13.7243 10.1417 13.6866 10.1302 13.6489C10.1226 13.6263 10.0882 13.5962 10.0691 13.5962C10.05 13.5962 10.0194 13.6301 10.0118 13.6527C10.0042 13.6979 10.0194 13.7469 10.008 13.7884C9.99271 13.8487 9.95834 13.9052 9.93543 13.9655C9.92397 13.9919 9.92015 14.0182 9.90869 14.0446C9.93925 14.0446 9.9698 14.0559 9.99653 14.0484C10.134 13.9956 10.134 13.8788 10.134 13.762Z" fill="#696969"/>
<path d="M8.37313 13.6451C8.36931 13.6225 8.33877 13.6075 8.31967 13.5886C8.30058 13.6075 8.27385 13.6263 8.27003 13.6489C8.2624 13.7017 8.27385 13.7582 8.2624 13.811C8.25476 13.8599 8.23567 13.9089 8.20894 13.9504C8.18603 13.9805 8.13257 14.0069 8.17839 14.0446C8.19748 14.0597 8.2624 14.0446 8.28913 14.022C8.38077 13.9542 8.37313 13.8524 8.37313 13.7544C8.37695 13.7205 8.38459 13.6791 8.37313 13.6451Z" fill="#696969"/>
<path d="M8.38088 11.4598C8.37706 11.4372 8.34651 11.4184 8.32741 11.3958C8.30832 11.4146 8.27777 11.4334 8.27777 11.456C8.27395 11.5578 8.27395 11.6633 8.27777 11.7651C8.27777 11.7839 8.31214 11.8027 8.32741 11.8253C8.34651 11.8027 8.37706 11.7839 8.38088 11.7613C8.38851 11.7123 8.3847 11.6633 8.3847 11.6143C8.38088 11.5616 8.38851 11.5088 8.38088 11.4598Z" fill="#696969"/>
<path d="M8.27739 11.2184C8.27357 11.2447 8.30794 11.2749 8.32703 11.3013C8.34994 11.2787 8.37667 11.2523 8.41104 11.2184C8.37667 11.1769 8.35376 11.1543 8.33467 11.1279C8.31558 11.1581 8.28121 11.1882 8.27739 11.2184Z" fill="#696969"/>
<path d="M12.79 10.7285C12.8587 10.6984 12.9351 10.6569 12.9733 10.6004C13.0153 10.5363 12.9962 10.4534 12.9198 10.4082C12.8816 10.3856 12.8167 10.3441 12.8014 10.3592C12.7327 10.4157 12.8205 10.4383 12.8396 10.4798C12.8549 10.5099 12.8587 10.5514 12.8511 10.5815C12.8473 10.6041 12.8129 10.6154 12.79 10.6343C12.7823 10.6268 12.7747 10.6154 12.7671 10.6079C12.7442 10.6268 12.7212 10.6456 12.7021 10.6644C12.7289 10.6871 12.7747 10.736 12.79 10.7285Z" fill="#696969"/>
<path d="M12.8474 13.4494C12.8589 13.4796 12.855 13.521 12.8474 13.5512C12.8398 13.5738 12.8054 13.5851 12.7978 13.6077C12.7901 13.6265 12.7901 13.6567 12.7978 13.6755C12.8016 13.683 12.8398 13.6944 12.8512 13.6868C12.9238 13.6454 12.9887 13.6001 12.9963 13.4833C12.9963 13.4268 12.9581 13.3665 12.8856 13.3364C12.8436 13.3175 12.7901 13.3175 12.7443 13.3213C12.729 13.3213 12.7138 13.3628 12.6985 13.3854C12.7214 13.3967 12.7443 13.4117 12.7672 13.423C12.794 13.4343 12.8398 13.4343 12.8474 13.4494Z" fill="#696969"/>
<path d="M11.2086 13.1404C11.2239 13.1216 11.2506 13.1065 11.2544 13.0877C11.2621 13.0349 11.2583 12.9784 11.2583 12.9256C11.2583 12.8729 11.2621 12.8201 11.2544 12.7711C11.2506 12.7485 11.2201 12.7334 11.2048 12.7146C11.1857 12.7334 11.1551 12.7523 11.1513 12.7711C11.1475 12.8766 11.1475 12.9822 11.1513 13.0914C11.1551 13.1065 11.1895 13.1216 11.2086 13.1404Z" fill="#696969"/>
<path d="M12.4166 15.007C12.5235 14.9354 12.6228 14.8638 12.7182 14.7922C12.7259 14.7847 12.7182 14.747 12.7068 14.7319C12.6953 14.7206 12.661 14.7168 12.6457 14.7244C12.554 14.7771 12.4662 14.8337 12.3784 14.894C12.3631 14.9053 12.3517 14.9354 12.3555 14.9505C12.3631 14.9694 12.3898 14.9807 12.4166 15.007Z" fill="#696969"/>
<path d="M12.1802 12.2055C12.2413 12.1829 12.2909 12.1641 12.3367 12.1377C12.3558 12.1264 12.352 12.0887 12.3597 12.0585C12.3329 12.0585 12.3024 12.051 12.2756 12.0548C12.2413 12.0585 12.2107 12.0774 12.1764 12.0811C12.1343 12.0849 12.0847 12.0849 12.0962 12.1415C12.1038 12.1678 12.1496 12.1829 12.1802 12.2055Z" fill="#696969"/>
<path d="M11.1548 13.2874C11.151 13.3063 11.1854 13.3289 11.2045 13.3515C11.2274 13.3326 11.2465 13.3176 11.2847 13.2874C11.2503 13.2535 11.2312 13.2347 11.2083 13.2158C11.1892 13.2384 11.1587 13.261 11.1548 13.2874Z" fill="#696969"/>
<path d="M14.8211 14.0823C15.0231 14.022 15.2022 13.9429 15.347 13.8072C15.3585 13.7959 15.3546 13.7545 15.3432 13.7432C15.3318 13.7318 15.2937 13.7318 15.2746 13.7394C15.2175 13.7733 15.1679 13.8223 15.1069 13.8524C15.0155 13.8976 14.9164 13.9316 14.8249 13.9768C14.8021 13.9881 14.7792 14.0145 14.7754 14.0371C14.7792 14.0446 14.8097 14.0672 14.8211 14.0823Z" fill="#696969"/>
<path d="M15.4045 10.7323C15.435 10.7399 15.4809 10.7286 15.5114 10.7097C15.6336 10.6306 15.6413 10.4874 15.5229 10.3894C15.5 10.3706 15.4465 10.3517 15.4274 10.3668C15.3778 10.4007 15.416 10.4346 15.4465 10.4648C15.4618 10.4799 15.4809 10.4987 15.4885 10.5213C15.5114 10.5778 15.4694 10.6344 15.4007 10.6155C15.3778 10.6344 15.351 10.6494 15.3281 10.6683C15.3587 10.6871 15.3778 10.7248 15.4045 10.7323Z" fill="#696969"/>
<path d="M15.4808 13.4456C15.4923 13.4719 15.4923 13.5096 15.4846 13.5398C15.477 13.5624 15.4464 13.5775 15.435 13.6001C15.4235 13.6227 15.4312 13.6528 15.4273 13.6792C15.4541 13.6792 15.4923 13.6868 15.5037 13.6754C15.5495 13.6265 15.5877 13.5699 15.6374 13.5021C15.5915 13.438 15.5572 13.3739 15.5075 13.3325C15.4808 13.3099 15.4197 13.3174 15.3777 13.3212C15.3586 13.325 15.3471 13.3626 15.3357 13.3853C15.3586 13.3966 15.3815 13.4116 15.4082 13.4192C15.4312 13.4267 15.4732 13.4267 15.4808 13.4456Z" fill="#696969"/>
<path d="M13.8419 13.1291C13.8572 13.1102 13.8877 13.0951 13.8877 13.0763C13.8954 13.0235 13.8916 12.9746 13.8916 12.9218C13.8916 12.869 13.8954 12.8125 13.8877 12.7598C13.8839 12.7371 13.8572 12.7221 13.8381 12.6995C13.819 12.7183 13.7846 12.7371 13.7846 12.756C13.7808 12.8615 13.7808 12.967 13.7846 13.0763C13.7884 13.0951 13.8228 13.1102 13.8419 13.1291Z" fill="#696969"/>
<path d="M13.8265 11.075C13.8494 11.0712 13.8762 11.0486 13.8838 11.026C13.8953 10.9996 13.8876 10.9695 13.8876 10.9318C13.8876 10.9318 13.8953 10.8715 13.8876 10.8451C13.88 10.8225 13.8533 10.8074 13.838 10.7886C13.8189 10.8074 13.7884 10.8225 13.7845 10.8451C13.7769 10.9054 13.7769 10.9657 13.7845 11.026C13.7845 11.0448 13.8151 11.0787 13.8265 11.075Z" fill="#696969"/>
<path d="M14.8254 12.2131C14.8865 12.1829 14.94 12.1641 14.9858 12.1301C14.9972 12.1226 14.9896 12.0811 14.9934 12.0585C14.9705 12.0585 14.9438 12.051 14.9247 12.0548C14.8903 12.0623 14.8598 12.0811 14.8292 12.0849C14.7834 12.0887 14.7299 12.0849 14.7376 12.1452C14.7337 12.1716 14.7872 12.1904 14.8254 12.2131Z" fill="#696969"/>
<path d="M13.7847 13.2687C13.7885 13.295 13.819 13.3176 13.8381 13.3403C13.8572 13.3214 13.8801 13.3026 13.9145 13.2724C13.8801 13.2423 13.8572 13.2234 13.8381 13.2046C13.819 13.2272 13.7847 13.2498 13.7847 13.2687Z" fill="#696969"/>
<path d="M7.00842 12.7634C7.00842 12.7596 7.00461 12.7559 7.00461 12.7559C6.98174 12.7483 6.95506 12.737 6.9322 12.7295C6.92458 12.7559 6.90552 12.786 6.91314 12.8011C7.00842 12.9631 7.09607 13.1289 7.20659 13.2834C7.29425 13.404 7.29806 13.5058 7.1761 13.6C7.15324 13.6188 7.13037 13.6377 7.11513 13.6603C7.10369 13.6754 7.09988 13.7093 7.10751 13.7206C7.12275 13.7356 7.15324 13.747 7.1761 13.7394C7.26757 13.7168 7.40096 13.5435 7.40096 13.4304C7.39333 13.4153 7.38952 13.3814 7.37047 13.3513C7.24851 13.1553 7.12656 12.9594 7.00842 12.7634Z" fill="#696969"/>
<path d="M6.94375 13.7962C6.92088 13.7999 6.89801 13.8188 6.87515 13.8338C6.63505 13.962 6.39114 14.026 6.12056 13.9318C6.09769 13.9243 6.0672 13.9469 6.04053 13.9544C6.05958 13.9808 6.07102 14.0185 6.09388 14.026C6.18535 14.0524 6.28062 14.0712 6.3759 14.0939C6.60837 14.0825 6.81036 13.9959 7.00091 13.8828C7.01997 13.8715 7.01997 13.8376 7.02759 13.8112C7.00091 13.8037 6.97042 13.7924 6.94375 13.7962Z" fill="#696969"/>
<path d="M7.16891 10.7019C7.22237 10.7056 7.28347 10.717 7.32547 10.6943C7.45531 10.6227 7.45912 10.4682 7.34075 10.3703C7.31784 10.3514 7.27583 10.3552 7.24528 10.3477C7.25292 10.3778 7.25674 10.4117 7.26438 10.4419C7.27583 10.4833 7.30256 10.5285 7.29874 10.57C7.29493 10.5926 7.23765 10.6077 7.2071 10.6227C7.19946 10.6152 7.19564 10.6039 7.18801 10.5964C7.16891 10.6114 7.13836 10.6227 7.13836 10.6416C7.13455 10.6604 7.15746 10.6981 7.16891 10.7019Z" fill="#696969"/>
<path d="M6.75325 12.3376C6.74943 12.3301 6.71124 12.3338 6.69597 12.3414C6.68451 12.3489 6.67306 12.3791 6.6807 12.3904C6.72652 12.4695 6.77234 12.5486 6.8258 12.6278C6.83344 12.6391 6.86399 12.6428 6.88308 12.6353C6.89836 12.6315 6.90981 12.6089 6.92509 12.5901C6.86399 12.5072 6.81053 12.4205 6.75325 12.3376Z" fill="#696969"/>
<path d="M4.73329 15.081C4.98482 15.0508 5.18299 14.8398 5.19062 14.5873C5.19824 14.3236 5.00006 14.105 4.72185 14.0673C4.52749 14.0409 4.19973 14.1841 4.16543 14.4178C4.26452 14.3047 4.39029 14.2934 4.52368 14.316C4.6685 14.3386 4.74472 14.4178 4.74853 14.5384C4.75234 14.6702 4.6685 14.7795 4.53511 14.8097C4.39791 14.8361 4.26833 14.821 4.16162 14.7117C4.18449 14.9378 4.497 15.1074 4.73329 15.081Z" fill="#696969"/>
</svg>
