<svg viewBox="0 0 8 16" xmlns="http://www.w3.org/2000/svg">
<path d="M2.0599 15.7344H5.07694C5.33581 15.7344 5.54569 15.5245 5.54569 15.2656V8.4742H7.11313C7.35342 8.4742 7.55481 8.2925 7.57941 8.0535L7.84367 5.48873C7.85726 5.35678 7.81432 5.22518 7.72537 5.12668C7.63648 5.02813 7.51004 4.97193 7.37738 4.97193H5.54569V3.93307C5.54569 3.7185 5.6136 3.70244 5.71725 3.70244H7.33924C7.59811 3.70244 7.80799 3.49256 7.80799 3.23369V0.743457C7.80799 0.485293 7.59928 0.275762 7.34111 0.274707L5.10419 0.265625C3.53669 0.265625 2.70015 0.955274 2.27441 1.53377C1.67992 2.3416 1.59115 3.28812 1.59115 3.78043V4.97188H0.624999C0.366132 4.97188 0.15625 5.18176 0.15625 5.44063V8.00539C0.15625 8.26426 0.366132 8.47414 0.624999 8.47414H1.59115V15.2656C1.59115 15.5245 1.80097 15.7344 2.0599 15.7344ZM1.09369 7.5367V5.90943H2.05984C2.31871 5.90943 2.52859 5.69955 2.52859 5.44068V3.78049C2.52859 3.47668 2.5774 2.70377 3.02939 2.08947C3.46216 1.50137 4.16024 1.20318 5.10219 1.20318L6.87037 1.21033V2.765H5.71713C5.16512 2.765 4.60807 3.12617 4.60807 3.93312V5.44074C4.60807 5.69961 4.81796 5.90949 5.07682 5.90949H6.85778L6.69008 7.53676H5.07682C4.81796 7.53676 4.60807 7.74664 4.60807 8.00551V14.7969H2.52853V8.00545C2.52853 7.74658 2.31865 7.5367 2.05978 7.5367H1.09369V7.5367Z"/>
</svg>
