<svg width="24px" height="24px" viewBox="0 0 24 24" fill="none" xmlns="http://www.w3.org/2000/svg">
<path fill-rule="evenodd" clip-rule="evenodd" d="M2 12C2 6.47715 6.47715 2 12 2C17.5228 2 22 6.47715 22 12C22 17.5228 17.5228 22 12 22C6.47715 22 2 17.5228 2 12ZM8.83205 14.4453C8.5257 13.9858 7.90483 13.8616 7.4453 14.168C6.98577 14.4743 6.8616 15.0952 7.16795 15.5547C9.46665 19.0028 14.5334 19.0028 16.8321 15.5547C17.1384 15.0952 17.0142 14.4743 16.5547 14.168C16.0952 13.8616 15.4743 13.9858 15.1679 14.4453C13.6609 16.7059 10.3391 16.7059 8.83205 14.4453ZM17 9.5C17 10.3284 16.3284 11 15.5 11C14.6716 11 14 10.3284 14 9.5C14 8.67157 14.6716 8 15.5 8C16.3284 8 17 8.67157 17 9.5ZM10 9.5C10 10.3284 9.32843 11 8.5 11C7.67157 11 7 10.3284 7 9.5C7 8.67157 7.67157 8 8.5 8C9.32843 8 10 8.67157 10 9.5Z" fill="#152C70"/>
</svg>
