<svg viewBox="0 0 16 16" xmlns="http://www.w3.org/2000/svg">
<path d="M11.9395 0.479736H4.08946C2.09904 0.479736 0.479736 2.09911 0.479736 4.08953V11.9395C0.479736 13.93 2.09904 15.5493 4.08946 15.5493H11.9395C13.9299 15.5493 15.5492 13.93 15.5492 11.9395V4.08953C15.5492 2.09911 13.9299 0.479736 11.9395 0.479736ZM14.5988 11.9394C14.5988 13.4057 13.4058 14.5988 11.9395 14.5988H4.08946C2.62323 14.5988 1.43042 13.4057 1.43042 11.9394V4.08953C1.43042 2.6233 2.62331 1.43049 4.08946 1.43049H11.9395C13.4058 1.43049 14.5988 2.62338 14.5988 4.08953V11.9394Z"/>
<path d="M12.2259 3.23389C11.9067 3.23389 11.647 3.49353 11.647 3.81257C11.647 4.13161 11.9067 4.39118 12.2259 4.39118C12.5449 4.39118 12.8045 4.13161 12.8045 3.81257C12.8045 3.49353 12.5449 3.23389 12.2259 3.23389Z"/>
<path d="M8.01424 4.3208C5.97768 4.3208 4.3208 5.97767 4.3208 8.01423C4.3208 10.0509 5.97768 11.7079 8.01424 11.7079C10.0509 11.7079 11.708 10.0509 11.708 8.01423C11.708 5.97767 10.0509 4.3208 8.01424 4.3208ZM8.01424 10.7576C6.50165 10.7576 5.27111 9.52689 5.27111 8.01423C5.27111 6.50194 6.50165 5.27162 8.01424 5.27162C9.52668 5.27162 10.7571 6.50194 10.7571 8.01423C10.7571 9.52689 9.52668 10.7576 8.01424 10.7576Z"/>
</svg>
