<svg viewBox="0 0 21 14" xmlns="http://www.w3.org/2000/svg">
<path d="M1.39755 13.5994C0.769619 12.2037 0.595857 11.1424 0.656638 9.61314C0.71742 8.08391 1.13253 6.5897 1.86925 5.24825C2.60596 3.90681 3.64416 2.75479 4.90202 1.88299C6.15987 1.0112 7.60301 0.443444 9.1177 0.224479C10.6324 0.00551327 12.1772 0.14132 13.6305 0.621195C15.0837 1.10107 16.4057 1.9119 17.4922 2.98979C18.5786 4.06767 19.3999 5.38315 19.8913 6.83256C20.3826 8.28196 20.6215 9.3877 20.4145 10.9041L18.3817 11.077C18.5476 9.86137 18.429 8.62381 18.035 7.46186C17.6411 6.2999 16.9827 5.24532 16.1117 4.3812C15.2407 3.51709 14.181 2.86707 13.0159 2.48236C11.8509 2.09766 10.6124 1.98878 9.39813 2.16432C8.18384 2.33986 7.02691 2.79502 6.01852 3.49391C5.01012 4.19281 4.17783 5.11636 3.58722 6.19176C2.99661 7.26716 2.66383 8.46504 2.6151 9.69098C2.56637 10.9169 2.80303 12.1374 3.30643 13.2563L1.39755 13.5994Z" />
</svg>
