<svg viewBox="0 0 17 14" xmlns="http://www.w3.org/2000/svg">
<path d="M16.3587 2.412C16.4744 2.23862 16.4617 2.00964 16.3275 1.85009C16.1933 1.6906 15.9699 1.63892 15.7792 1.72312C15.7673 1.72839 15.7553 1.73366 15.7434 1.73882C15.8536 1.54106 15.9447 1.33165 16.0146 1.11327C16.0741 0.927764 16.0126 0.724912 15.8602 0.603623C15.7079 0.482275 15.4964 0.467862 15.329 0.567178C14.856 0.847959 14.35 1.05433 13.8216 1.18229C13.1889 0.609365 12.3566 0.2854 11.4986 0.2854C9.59605 0.2854 8.04817 1.83239 8.04817 3.73394C8.04817 3.78831 8.04941 3.84257 8.05187 3.89659C6.00935 3.64763 4.12403 2.61263 2.81259 1.003C2.71544 0.88376 2.56614 0.819717 2.41263 0.831787C2.25929 0.843799 2.12159 0.930224 2.04419 1.06312C1.73868 1.58747 1.5772 2.18724 1.5772 2.79761C1.5772 3.38073 1.72286 3.94265 1.9904 4.4387C1.91862 4.44345 1.84773 4.46472 1.78368 4.50245C1.64054 4.58671 1.55271 4.74034 1.55271 4.90646V4.94372C1.55271 5.97638 2.01606 6.92396 2.76067 7.56398C2.74456 7.57786 2.72927 7.59298 2.71497 7.60921C2.60605 7.73296 2.57007 7.90481 2.62034 8.06185C2.94067 9.06274 3.68968 9.83917 4.628 10.2131C3.86622 10.5961 3.02517 10.7951 2.1486 10.7951C1.92759 10.7951 1.70657 10.7824 1.49171 10.7574C1.27503 10.7321 1.06948 10.8598 0.996123 11.0653C0.922705 11.2708 1.00081 11.4997 1.18444 11.6176C2.62644 12.5425 4.29425 13.0313 6.00759 13.0313C9.37403 13.0313 11.4816 11.4419 12.6569 10.1086C14.1199 8.44892 14.959 6.25159 14.959 4.07993C14.959 4.02638 14.9585 3.97423 14.9577 3.92314C15.5027 3.49704 15.9733 2.98968 16.3587 2.412ZM14.2069 3.3147C14.0781 3.40757 14.0051 3.55938 14.0129 3.718C14.0186 3.83343 14.0214 3.95179 14.0214 4.07993C14.0214 6.02648 13.2677 7.99786 11.9536 9.48872C10.9061 10.6771 9.02417 12.0938 6.00759 12.0938C5.08474 12.0938 4.17653 11.9353 3.31837 11.6287C4.34435 11.4435 5.30417 11.0131 6.13983 10.3575C6.29581 10.2351 6.35798 10.0278 6.29499 9.83982C6.232 9.65185 6.05757 9.52376 5.85929 9.52001C5.03411 9.50448 4.28716 9.08853 3.83622 8.43398C4.07148 8.41968 4.30532 8.38148 4.53407 8.31966C4.74401 8.263 4.88733 8.06935 4.88036 7.85202C4.87339 7.6347 4.71782 7.45071 4.50472 7.40765C3.57091 7.21904 2.842 6.51802 2.58776 5.63495C2.83849 5.70116 3.09683 5.73948 3.35646 5.74816C3.56605 5.7553 3.75431 5.62241 3.81835 5.42308C3.88245 5.22374 3.80645 5.00601 3.63231 4.88976C2.93259 4.42276 2.51487 3.64065 2.51487 2.79755C2.51487 2.58392 2.54194 2.37222 2.59474 2.16761C4.16552 3.7896 6.30419 4.76841 8.57095 4.88138C8.71895 4.8887 8.85981 4.82653 8.95415 4.71362C9.04843 4.60065 9.08423 4.44995 9.05077 4.30663C9.00771 4.12212 8.98585 3.92941 8.98585 3.73388C8.98585 2.34931 10.1131 1.22284 11.4988 1.22284C12.1904 1.22284 12.8591 1.51177 13.3336 2.01544C13.444 2.13263 13.6068 2.18501 13.7647 2.15413C13.9423 2.11939 14.1179 2.07726 14.2912 2.0278C14.2043 2.09689 14.1124 2.16058 14.0161 2.21823C13.8265 2.33179 13.7419 2.5623 13.8132 2.77148C13.8844 2.98071 14.0919 3.11185 14.3116 3.08595C14.3879 3.07698 14.464 3.06667 14.5399 3.05495C14.4324 3.14548 14.3214 3.23208 14.2069 3.3147Z"/>
</svg>
