<svg viewBox="0 0 18 14" xmlns="http://www.w3.org/2000/svg">
<path d="M17.075 3.67242C17.0576 3.54135 16.8895 2.37615 16.3437 1.78313C15.6917 1.0575 14.9498 0.982383 14.5931 0.946231C14.562 0.943067 14.5334 0.940195 14.5077 0.93709C14.5006 0.936211 14.4937 0.935508 14.4866 0.934981C12.3331 0.768047 9.08222 0.766113 9.04959 0.766113H9.04232C9.00974 0.766113 5.75885 0.768047 3.60576 0.934981C3.59873 0.935508 3.5917 0.936211 3.58473 0.93709C3.55906 0.940254 3.53047 0.943125 3.4993 0.946231C3.14269 0.982325 2.40113 1.05738 1.74875 1.78307C1.20336 2.37586 1.03484 3.54111 1.01744 3.67225C1.01709 3.67482 1.0168 3.67746 1.01645 3.68004C1.01 3.73553 0.858887 5.05477 0.858887 6.39873V7.6476C0.858887 8.9925 1.01 10.3113 1.01645 10.3668C1.01674 10.3693 1.01709 10.3719 1.01738 10.3744C1.03479 10.5055 1.20289 11.6704 1.74898 12.2626C2.35273 12.9336 3.11721 13.0318 3.52818 13.0847C3.60055 13.094 3.66307 13.102 3.70566 13.1105C3.72019 13.1134 3.73484 13.1156 3.74961 13.1171C4.9918 13.2444 8.87685 13.2835 9.04701 13.2851C9.07965 13.2851 12.3332 13.2774 14.4862 13.1125C14.4941 13.1119 14.502 13.1111 14.5099 13.11C14.5364 13.1066 14.566 13.1036 14.5982 13.1002C14.9541 13.063 15.6942 12.9857 16.3436 12.2628C16.8891 11.6708 17.0575 10.5062 17.0749 10.3751C17.0753 10.3726 17.0756 10.3699 17.0759 10.3673C17.0824 10.3118 17.2334 8.99262 17.2335 7.64818V6.39926C17.2335 5.05482 17.0824 3.73565 17.0759 3.6801C17.0756 3.67752 17.0753 3.675 17.075 3.67242ZM16.2959 7.64818C16.2959 8.90203 16.1541 10.1757 16.1451 10.2555C16.1098 10.516 15.9463 11.3122 15.653 11.6287C15.6513 11.6306 15.6495 11.6326 15.6478 11.6345C15.239 12.0907 14.7947 12.1371 14.5007 12.1679C14.4655 12.1716 14.433 12.175 14.4034 12.1787C12.2854 12.34 9.07748 12.3476 9.0507 12.3478C9.01098 12.3473 5.08754 12.3079 3.86486 12.1866C3.79725 12.1742 3.72435 12.1648 3.64766 12.1549C3.29656 12.1098 2.81568 12.048 2.44426 11.6338C2.4425 11.6319 2.44074 11.63 2.43898 11.628C2.17836 11.347 1.99936 10.6381 1.94715 10.2548C1.93789 10.1731 1.79627 8.90098 1.79627 7.64766V6.39879C1.79627 5.14488 1.93818 3.87076 1.94715 3.79178C1.98242 3.53109 2.14602 2.73428 2.43939 2.41693C2.44098 2.41518 2.44262 2.41342 2.4442 2.41166C2.85482 1.95381 3.29943 1.90881 3.59363 1.87899C3.62762 1.87553 3.65914 1.8723 3.68797 1.86891C5.80478 1.70555 9.01004 1.70361 9.04221 1.70361H9.04947C9.08164 1.70361 12.2869 1.70555 14.4042 1.86891C14.4329 1.8723 14.4645 1.87553 14.4985 1.87899C14.7928 1.90875 15.2376 1.95381 15.6478 2.41148C15.6495 2.41336 15.6512 2.41518 15.6528 2.41705C15.9136 2.69877 16.0926 3.40787 16.145 3.79201C16.1543 3.87363 16.2959 5.14629 16.2959 6.3992L16.2959 7.64818Z"/>
<path d="M12.1847 6.6238L7.35915 3.72839C7.2143 3.64155 7.03401 3.63927 6.887 3.72241C6.74005 3.80562 6.64917 3.96142 6.64917 4.13028V9.92104C6.64917 10.0899 6.73999 10.2458 6.887 10.3289C6.95872 10.3695 7.03835 10.3898 7.11792 10.3898C7.20147 10.3898 7.28497 10.3675 7.35909 10.323L12.1846 7.42758C12.3258 7.34286 12.4122 7.19028 12.4122 7.02563C12.4122 6.86098 12.3259 6.70846 12.1847 6.6238ZM7.58672 9.09323V4.95827L11.0325 7.02575L7.58672 9.09323Z"/>
</svg>
